Facade-Regular.ufo
<glyph name="zero" format="2">
  <advance width="750"/>
  <unicode hex="0030"/>
  <outline>
    <contour>
      <point x="375" y="-12" type="curve" smooth="yes"/>
      <point x="586" y="-12"/>
      <point x="690" y="223"/>
      <point x="690" y="450" type="curve" smooth="yes"/>
      <point x="690" y="677"/>
      <point x="586" y="912"/>
      <point x="375" y="912" type="curve" smooth="yes"/>
      <point x="164" y="912"/>
      <point x="60" y="677"/>
      <point x="60" y="450" type="curve" smooth="yes"/>
      <point x="60" y="223"/>
      <point x="164" y="-12"/>
    </contour>
    <contour>
      <point x="375" y="90" type="curve" smooth="yes"/>
      <point x="235" y="90"/>
      <point x="174" y="282"/>
      <point x="174" y="450" type="curve" smooth="yes"/>
      <point x="174" y="618"/>
      <point x="235" y="810"/>
      <point x="375" y="810" type="curve" smooth="yes"/>
      <point x="515" y="810"/>
      <point x="576" y="618"/>
      <point x="576" y="450" type="curve" smooth="yes"/>
      <point x="576" y="282"/>
      <point x="515" y="90"/>
    </contour>
  </outline>
</glyph>
<glyph name="one" format="2">
  <advance width="750"/>
  <unicode hex="0031"/>
  <outline>
    <contour>
      <point x="370" y="0" type="line"/>
      <point x="480" y="0" type="line"/>
      <point x="480" y="920" type="line"/>
      <point x="162" y="760" type="line"/>
      <point x="162" y="652" type="line"/>
      <point x="395" y="771" type="line"/>
      <point x="370" y="772" type="line"/>
    </contour>
    <contour>
      <point x="162" y="0" type="line"/>
      <point x="648" y="0" type="line"/>
      <point x="648" y="90" type="line"/>
      <point x="162" y="90" type="line"/>
    </contour>
  </outline>
</glyph>
<glyph name="A" format="2">
  <advance width="800"/>
  <unicode hex="0041"/>
  <anchor x="400" y="0" name="bottom"/>
  <anchor x="681" y="0" name="ogonek"/>
  <anchor x="400" y="900" name="top"/>
  <anchor x="120" y="720" name="top-vertical"/>
  <outline>
    <contour>
      <point x="18" y="0" type="line"/>
      <point x="133" y="0" type="line"/>
      <point x="349" y="540" type="line"/>
      <point x="367" y="586"/>
      <point x="381" y="624"/>
      <point x="397" y="686" type="curve"/>
      <point x="413" y="624"/>
      <point x="428" y="585"/>
      <point x="446" y="540" type="curve"/>
      <point x="661" y="0" type="line"/>
      <point x="782" y="0" type="line"/>
      <point x="401" y="930" type="line"/>
      <point x="399" y="930" type="line"/>
    </contour>
    <contour>
      <point x="211" y="267" type="line"/>
      <point x="583" y="267" type="line"/>
      <point x="548" y="362" type="line"/>
      <point x="247" y="362" type="line"/>
    </contour>
  </outline>
</glyph>
<glyph name="F" format="2">
  <advance width="600"/>
  <unicode hex="0046"/>
  <outline>
    <contour>
      <point x="126" y="0" type="line"/>
      <point x="240" y="0" type="line"/>
      <point x="240" y="504" type="line"/>
      <point x="540" y="504" type="line"/>
      <point x="540" y="606" type="line"/>
      <point x="240" y="606" type="line"/>
      <point x="240" y="798" type="line"/>
      <point x="570" y="798" type="line"/>
      <point x="570" y="900" type="line"/>
      <point x="126" y="900" type="line"/>
    </contour>
  </outline>
</glyph>
<glyph name="X" format="2">
  <advance width="870"/>
  <unicode hex="0058"/>
  <outline>
    <contour>
      <point x="6" y="0" type="line"/>
      <point x="139" y="0" type="line"/>
      <point x="343" y="300" type="line" smooth="yes"/>
      <point x="381" y="356"/>
      <point x="420" y="411"/>
      <point x="468" y="517" type="curve"/>
      <point x="398" y="517" type="line"/>
      <point x="447" y="411"/>
      <point x="485" y="356"/>
      <point x="523" y="300" type="curve" smooth="yes"/>
      <point x="725" y="0" type="line"/>
      <point x="864" y="0" type="line"/>
      <point x="503" y="526" type="line"/>
      <point x="762" y="900" type="line"/>
      <point x="633" y="900" type="line"/>
      <point x="510" y="720" type="line" smooth="yes"/>
      <point x="478" y="674"/>
      <point x="450" y="627"/>
      <point x="419" y="561" type="curve"/>
      <point x="454" y="561" type="line"/>
      <point x="424" y="627"/>
      <point x="395" y="674"/>
      <point x="364" y="720" type="curve" smooth="yes"/>
      <point x="243" y="900" type="line"/>
      <point x="108" y="900" type="line"/>
      <point x="367" y="522" type="line"/>
    </contour>
  </outline>
</glyph>
<glyph name="b" format="2">
  <advance width="760"/>
  <unicode hex="0062"/>
  <anchor x="390" y="0" name="bottom"/>
  <anchor x="390" y="914" name="top"/>
  <outline>
    <contour>
      <point x="407" y="-8" type="curve" smooth="yes"/>
      <point x="572" y="-8"/>
      <point x="706" y="130"/>
      <point x="706" y="300" type="curve" smooth="yes"/>
      <point x="706" y="470"/>
      <point x="572" y="608"/>
      <point x="407" y="608" type="curve" smooth="yes"/>
      <point x="302" y="608"/>
      <point x="210" y="554"/>
      <point x="158" y="476" type="curve"/>
      <point x="204" y="453" type="line"/>
      <point x="204" y="960" type="line"/>
      <point x="96" y="960" type="line"/>
      <point x="96" y="0" type="line"/>
      <point x="196" y="0" type="line"/>
      <point x="196" y="150" type="line"/>
      <point x="158" y="125" type="line"/>
      <point x="211" y="45"/>
      <point x="302" y="-8"/>
    </contour>
    <contour>
      <point x="393" y="90" type="curve" smooth="yes"/>
      <point x="279" y="90"/>
      <point x="188" y="184"/>
      <point x="188" y="300" type="curve" smooth="yes"/>
      <point x="188" y="416"/>
      <point x="279" y="510"/>
      <point x="393" y="510" type="curve" smooth="yes"/>
      <point x="507" y="510"/>
      <point x="598" y="416"/>
      <point x="598" y="300" type="curve" smooth="yes"/>
      <point x="598" y="184"/>
      <point x="507" y="90"/>
    </contour>
  </outline>
</glyph>
<glyph name="q" format="2">
  <advance width="760"/>
  <unicode hex="0071"/>
  <outline>
    <contour>
      <point x="556" y="-300" type="line"/>
      <point x="664" y="-300" type="line"/>
      <point x="664" y="600" type="line"/>
      <point x="564" y="600" type="line"/>
      <point x="564" y="450" type="line"/>
      <point x="602" y="475" type="line"/>
      <point x="549" y="555"/>
      <point x="458" y="608"/>
      <point x="353" y="608" type="curve" smooth="yes"/>
      <point x="188" y="608"/>
      <point x="54" y="470"/>
      <point x="54" y="300" type="curve" smooth="yes"/>
      <point x="54" y="130"/>
      <point x="188" y="-8"/>
      <point x="353" y="-8" type="curve" smooth="yes"/>
      <point x="458" y="-8"/>
      <point x="550" y="46"/>
      <point x="602" y="124" type="curve"/>
      <point x="556" y="147" type="line"/>
    </contour>
    <contour>
      <point x="367" y="90" type="curve" smooth="yes"/>
      <point x="253" y="90"/>
      <point x="162" y="184"/>
      <point x="162" y="300" type="curve" smooth="yes"/>
      <point x="162" y="416"/>
      <point x="253" y="510"/>
      <point x="367" y="510" type="curve" smooth="yes"/>
      <point x="481" y="510"/>
      <point x="572" y="416"/>
      <point x="572" y="300" type="curve" smooth="yes"/>
      <point x="572" y="184"/>
      <point x="481" y="90"/>
    </contour>
  </outline>
</glyph>
<glyph name="r" format="2">
  <advance width="450"/>
  <unicode hex="0072"/>
  <anchor x="150" y="0" name="bottom"/>
  <anchor x="252" y="600" name="top"/>
  <outline>
    <contour>
      <point x="96" y="0" type="line"/>
      <point x="204" y="0" type="line"/>
      <point x="204" y="438" type="line"/>
      <point x="196" y="461" type="line"/>
      <point x="196" y="600" type="line"/>
      <point x="96" y="600" type="line"/>
    </contour>
    <contour>
      <point x="147" y="298" type="curve"/>
      <point x="204" y="298" type="line"/>
      <point x="204" y="430"/>
      <point x="278" y="504"/>
      <point x="390" y="504" type="curve" smooth="yes"/>
      <point x="404" y="504"/>
      <point x="421" y="502"/>
      <point x="434" y="498" type="curve"/>
      <point x="407" y="606" type="line"/>
      <point x="237" y="606"/>
      <point x="147" y="465"/>
    </contour>
  </outline>
</glyph>
<glyph name="y" format="2">
  <advance width="650"/>
  <unicode hex="0079"/>
  <anchor x="443" y="0" name="bottom"/>
  <anchor x="329" y="600" name="top"/>
  <outline>
    <contour>
      <point x="71" y="-300" type="line"/>
      <point x="188" y="-300" type="line"/>
      <point x="638" y="600" type="line"/>
      <point x="523" y="600" type="line"/>
      <point x="393" y="340" type="line" smooth="yes"/>
      <point x="365" y="285"/>
      <point x="341" y="238"/>
      <point x="315" y="149" type="curve"/>
      <point x="340" y="148" type="line"/>
      <point x="314" y="238"/>
      <point x="290" y="284"/>
      <point x="262" y="340" type="curve" smooth="yes"/>
      <point x="134" y="600" type="line"/>
      <point x="12" y="600" type="line"/>
      <point x="266" y="88" type="line"/>
    </contour>
  </outline>
</glyph>
<glyph name="section" format="2">
  <advance width="750"/>
  <unicode hex="00A7"/>
  <outline>
    <contour>
      <point x="366" y="-192" type="curve" smooth="yes"/>
      <point x="502" y="-192"/>
      <point x="603" y="-101"/>
      <point x="603" y="28" type="curve" smooth="yes"/>
      <point x="603" y="119"/>
      <point x="552" y="173"/>
      <point x="505" y="204" type="curve"/>
      <point x="493" y="191" type="line"/>
      <point x="598" y="210"/>
      <point x="675" y="284"/>
      <point x="675" y="396" type="curve" smooth="yes"/>
      <point x="675" y="527"/>
      <point x="568" y="579"/>
      <point x="520" y="601" type="curve" smooth="yes"/>
      <point x="352" y="678" type="line" smooth="yes"/>
      <point x="320" y="693"/>
      <point x="273" y="723"/>
      <point x="273" y="781" type="curve" smooth="yes"/>
      <point x="273" y="835"/>
      <point x="314" y="880"/>
      <point x="381" y="880" type="curve" smooth="yes"/>
      <point x="448" y="880"/>
      <point x="509" y="837"/>
      <point x="536" y="784" type="curve"/>
      <point x="579" y="894" type="line"/>
      <point x="542" y="935"/>
      <point x="469" y="972"/>
      <point x="386" y="972" type="curve" smooth="yes"/>
      <point x="258" y="972"/>
      <point x="171" y="886"/>
      <point x="171" y="772" type="curve" smooth="yes"/>
      <point x="171" y="695"/>
      <point x="209" y="649"/>
      <point x="250" y="619" type="curve"/>
      <point x="263" y="633" type="line"/>
      <point x="152" y="614"/>
      <point x="75" y="536"/>
      <point x="75" y="426" type="curve" smooth="yes"/>
      <point x="75" y="295"/>
      <point x="182" y="245"/>
      <point x="230" y="222" type="curve" smooth="yes"/>
      <point x="405" y="140" type="line" smooth="yes"/>
      <point x="435" y="126"/>
      <point x="501" y="94"/>
      <point x="501" y="21" type="curve" smooth="yes"/>
      <point x="501" y="-46"/>
      <point x="450" y="-98"/>
      <point x="372" y="-98" type="curve" smooth="yes"/>
      <point x="291" y="-98"/>
      <point x="220" y="-46"/>
      <point x="194" y="26" type="curve"/>
      <point x="147" y="-91" type="line"/>
      <point x="193" y="-151"/>
      <point x="277" y="-192"/>
    </contour>
    <contour>
      <point x="436" y="257" type="curve" smooth="yes"/>
      <point x="420" y="257"/>
      <point x="405" y="259"/>
      <point x="390" y="263" type="curve"/>
      <point x="358" y="275"/>
      <point x="325" y="289"/>
      <point x="295" y="305" type="curve" smooth="yes"/>
      <point x="247" y="331"/>
      <point x="177" y="361"/>
      <point x="177" y="440" type="curve" smooth="yes"/>
      <point x="177" y="511"/>
      <point x="232" y="565"/>
      <point x="314" y="565" type="curve" smooth="yes"/>
      <point x="332" y="565"/>
      <point x="348" y="563"/>
      <point x="363" y="558" type="curve"/>
      <point x="393" y="546"/>
      <point x="425" y="532"/>
      <point x="455" y="517" type="curve" smooth="yes"/>
      <point x="507" y="491"/>
      <point x="573" y="461"/>
      <point x="573" y="383" type="curve" smooth="yes"/>
      <point x="573" y="312"/>
      <point x="518" y="257"/>
    </contour>
  </outline>
</glyph>
<glyph name="copyright" format="2">
  <advance width="1260"/>
  <unicode hex="00A9"/>
  <outline>
    <contour>
      <point x="630" y="-192" type="curve" smooth="yes"/>
      <point x="938" y="-192"/>
      <point x="1188" y="55"/>
      <point x="1188" y="360" type="curve" smooth="yes"/>
      <point x="1188" y="665"/>
      <point x="938" y="912"/>
      <point x="630" y="912" type="curve" smooth="yes"/>
      <point x="322" y="912"/>
      <point x="72" y="665"/>
      <point x="72" y="360" type="curve" smooth="yes"/>
      <point x="72" y="55"/>
      <point x="322" y="-192"/>
    </contour>
    <contour>
      <point x="648" y="78" type="curve" smooth="yes"/>
      <point x="727" y="78"/>
      <point x="798" y="108"/>
      <point x="849" y="154" type="curve"/>
      <point x="819" y="277" type="line"/>
      <point x="788" y="214"/>
      <point x="724" y="170"/>
      <point x="647" y="170" type="curve" smooth="yes"/>
      <point x="543" y="170"/>
      <point x="459" y="256"/>
      <point x="459" y="360" type="curve" smooth="yes"/>
      <point x="459" y="464"/>
      <point x="543" y="550"/>
      <point x="647" y="550" type="curve" smooth="yes"/>
      <point x="724" y="550"/>
      <point x="788" y="504"/>
      <point x="819" y="443" type="curve"/>
      <point x="849" y="566" type="line"/>
      <point x="798" y="612"/>
      <point x="727" y="642"/>
      <point x="648" y="642" type="curve" smooth="yes"/>
      <point x="489" y="642"/>
      <point x="361" y="515"/>
      <point x="361" y="360" type="curve" smooth="yes"/>
      <point x="361" y="205"/>
      <point x="489" y="78"/>
    </contour>
    <contour>
      <point x="630" y="-102" type="curve" smooth="yes"/>
      <point x="375" y="-102"/>
      <point x="168" y="105"/>
      <point x="168" y="360" type="curve" smooth="yes"/>
      <point x="168" y="615"/>
      <point x="375" y="822"/>
      <point x="630" y="822" type="curve" smooth="yes"/>
      <point x="885" y="822"/>
      <point x="1092" y="615"/>
      <point x="1092" y="360" type="curve" smooth="yes"/>
      <point x="1092" y="105"/>
      <point x="885" y="-102"/>
    </contour>
  </outline>
</glyph>
<glyph name="plusminus" format="2">
  <advance width="750"/>
  <unicode hex="00B1"/>
  <outline>
    <contour>
      <point x="90" y="465" type="line"/>
      <point x="660" y="465" type="line"/>
      <point x="660" y="555" type="line"/>
      <point x="90" y="555" type="line"/>
    </contour>
    <contour>
      <point x="90" y="74" type="line"/>
      <point x="660" y="74" type="line"/>
      <point x="660" y="166" type="line"/>
      <point x="90" y="166" type="line"/>
    </contour>
    <contour>
      <point x="327" y="255" type="line"/>
      <point x="423" y="255" type="line"/>
      <point x="423" y="795" type="line"/>
      <point x="327" y="795" type="line"/>
    </contour>
  </outline>
</glyph>
<glyph name="germandbls" format="2">
  <advance width="690"/>
  <unicode hex="00DF"/>
  <outline>
    <contour>
      <point x="361" y="-12" type="line"/>
      <point x="531" y="2"/>
      <point x="666" y="140"/>
      <point x="666" y="314" type="curve" smooth="yes"/>
      <point x="666" y="447"/>
      <point x="587" y="556"/>
      <point x="474" y="606" type="curve"/>
      <point x="480" y="591" type="line"/>
      <point x="528" y="630"/>
      <point x="565" y="683"/>
      <point x="565" y="756" type="curve" smooth="yes"/>
      <point x="565" y="877"/>
      <point x="465" y="972"/>
      <point x="333" y="972" type="curve" smooth="yes"/>
      <point x="199" y="972"/>
      <point x="96" y="875"/>
      <point x="96" y="727" type="curve" smooth="yes"/>
      <point x="96" y="0" type="line"/>
      <point x="204" y="0" type="line"/>
      <point x="204" y="727" type="line" smooth="yes"/>
      <point x="204" y="813"/>
      <point x="259" y="870"/>
      <point x="332" y="870" type="curve" smooth="yes"/>
      <point x="404" y="870"/>
      <point x="457" y="815"/>
      <point x="457" y="747" type="curve" smooth="yes"/>
      <point x="457" y="679"/>
      <point x="403" y="619"/>
      <point x="309" y="574" type="curve"/>
      <point x="472" y="518"/>
      <point x="552" y="432"/>
      <point x="552" y="314" type="curve" smooth="yes"/>
      <point x="552" y="187"/>
      <point x="460" y="94"/>
      <point x="337" y="90" type="curve"/>
    </contour>
  </outline>
</glyph>
<glyph name="Ohorn" format="2">
  <advance width="1060"/>
  <unicode hex="01A0"/>
  <anchor x="530" y="0" name="bottom"/>
  <anchor x="530" y="0" name="ogonek"/>
  <anchor x="530" y="900" name="top"/>
  <outline>
    <contour>
      <point x="530" y="-18" type="curve" smooth="yes"/>
      <point x="790" y="-18"/>
      <point x="1000" y="191"/>
      <point x="1000" y="450" type="curve" smooth="yes"/>
      <point x="1000" y="709"/>
      <point x="790" y="918"/>
      <point x="530" y="918" type="curve" smooth="yes"/>
      <point x="270" y="918"/>
      <point x="60" y="709"/>
      <point x="60" y="450" type="curve" smooth="yes"/>
      <point x="60" y="191"/>
      <point x="270" y="-18"/>
    </contour>
    <contour>
      <point x="530" y="90" type="curve" smooth="yes"/>
      <point x="332" y="90"/>
      <point x="178" y="251"/>
      <point x="178" y="450" type="curve" smooth="yes"/>
      <point x="178" y="649"/>
      <point x="332" y="810"/>
      <point x="530" y="810" type="curve" smooth="yes"/>
      <point x="728" y="810"/>
      <point x="882" y="649"/>
      <point x="882" y="450" type="curve" smooth="yes"/>
      <point x="882" y="251"/>
      <point x="728" y="90"/>
    </contour>
    <contour>
      <point x="856" y="698" type="line"/>
      <point x="935" y="698"/>
      <point x="1006" y="759"/>
      <point x="1006" y="868" type="curve" smooth="yes"/>
      <point x="1006" y="897"/>
      <point x="1001" y="928"/>
      <point x="982" y="960" type="curve"/>
      <point x="886" y="960" type="line"/>
      <point x="905" y="927"/>
      <point x="910" y="892"/>
      <point x="910" y="868" type="curve" smooth="yes"/>
      <point x="910" y="816"/>
      <point x="882" y="776"/>
      <point x="832" y="776" type="curve"/>
    </contour>
  </outline>
</glyph>
<glyph name="endash" format="2">
  <advance width="720"/>
  <unicode hex="2013"/>
  <outline>
    <contour>
      <point x="60" y="252" type="line"/>
      <point x="660" y="252" type="line"/>
      <point x="660" y="348" type="line"/>
      <point x="60" y="348" type="line"/>
    </contour>
  </outline>
</glyph>
<glyph name="daggerdbl" format="2">
  <advance width="600"/>
  <unicode hex="2021"/>
  <outline>
    <contour>
      <point x="246" y="0" type="line"/>
      <point x="354" y="0" type="line"/>
      <point x="347" y="228" type="line"/>
      <point x="528" y="225" type="line"/>
      <point x="528" y="315" type="line"/>
      <point x="306" y="312" type="line"/>
      <point x="347" y="246" type="line"/>
      <point x="351" y="450" type="line"/>
      <point x="347" y="654" type="line"/>
      <point x="306" y="588" type="line"/>
      <point x="528" y="585" type="line"/>
      <point x="528" y="675" type="line"/>
      <point x="347" y="672" type="line"/>
      <point x="354" y="900" type="line"/>
      <point x="246" y="900" type="line"/>
      <point x="253" y="672" type="line"/>
      <point x="72" y="675" type="line"/>
      <point x="72" y="585" type="line"/>
      <point x="294" y="588" type="line"/>
      <point x="253" y="654" type="line"/>
      <point x="249" y="450" type="line"/>
      <point x="253" y="246" type="line"/>
      <point x="294" y="312" type="line"/>
      <point x="72" y="315" type="line"/>
      <point x="72" y="225" type="line"/>
      <point x="253" y="228" type="line"/>
    </contour>
  </outline>
</glyph>
<glyph name="guilsinglright" format="2">
  <advance width="360"/>
  <unicode hex="203A"/>
  <outline>
    <contour>
      <point x="156" y="60" type="line"/>
      <point x="318" y="300" type="line"/>
      <point x="156" y="540" type="line"/>
      <point x="48" y="540" type="line"/>
      <point x="210" y="300" type="line"/>
      <point x="48" y="60" type="line"/>
    </contour>
  </outline>
</glyph>
<glyph name="brevecomb_hookabovecomb" format="2">
  <anchor x="360" y="600" name="_top"/>
  <outline>
    <contour>
      <point x="360" y="675" type="curve" smooth="yes"/>
      <point x="460" y="675"/>
      <point x="540" y="750"/>
      <point x="540" y="849" type="curve"/>
      <point x="456" y="849" type="line"/>
      <point x="456" y="796"/>
      <point x="411" y="753"/>
      <point x="360" y="753" type="curve" smooth="yes"/>
      <point x="309" y="753"/>
      <point x="264" y="796"/>
      <point x="264" y="849" type="curve"/>
      <point x="180" y="849" type="line"/>
      <point x="180" y="749"/>
      <point x="259" y="675"/>
    </contour>
    <contour>
      <point x="318" y="879" type="curve"/>
      <point x="408" y="879" type="line"/>
      <point x="431" y="902"/>
      <point x="450" y="929"/>
      <point x="450" y="963" type="curve" smooth="yes"/>
      <point x="450" y="1028"/>
      <point x="395" y="1068"/>
      <point x="330" y="1068" type="curve" smooth="yes"/>
      <point x="298" y="1068"/>
      <point x="263" y="1059"/>
      <point x="236" y="1038" type="curve"/>
      <point x="255" y="963" type="line"/>
      <point x="269" y="980"/>
      <point x="292" y="996"/>
      <point x="318" y="996" type="curve" smooth="yes"/>
      <point x="347" y="996"/>
      <point x="366" y="977"/>
      <point x="366" y="952" type="curve" smooth="yes"/>
      <point x="366" y="932"/>
      <point x="347" y="908"/>
    </contour>
  </outline>
</glyph>
<glyph name="brokenbar.titl" format="2">
  <advance width="480"/>
  <outline>
    <contour>
      <point x="214" y="-180" type="line"/>
      <point x="266" y="-180" type="line"/>
      <point x="266" y="240" type="line"/>
      <point x="214" y="240" type="line"/>
    </contour>
    <contour>
      <point x="214" y="540" type="line"/>
      <point x="266" y="540" type="line"/>
      <point x="266" y="960" type="line"/>
      <point x="214" y="960" type="line"/>
    </contour>
  </outline>
</glyph>
<glyph name="circumflexcomb_tildecomb" format="2">
  <anchor x="360" y="600" name="_top"/>
  <outline>
    <contour>
      <point x="171" y="690" type="line"/>
      <point x="281" y="690" type="line"/>
      <point x="309" y="716"/>
      <point x="329" y="741"/>
      <point x="358" y="779" type="curve"/>
      <point x="387" y="741"/>
      <point x="407" y="716"/>
      <point x="435" y="690" type="curve"/>
      <point x="549" y="690" type="line"/>
      <point x="360" y="897" type="line"/>
    </contour>
    <contour>
      <point x="212" y="892" type="line"/>
      <point x="228" y="931"/>
      <point x="253" y="953"/>
      <point x="289" y="953" type="curve" smooth="yes"/>
      <point x="335" y="953"/>
      <point x="382" y="910"/>
      <point x="436" y="910" type="curve" smooth="yes"/>
      <point x="478" y="910"/>
      <point x="512" y="932"/>
      <point x="534" y="975" type="curve"/>
      <point x="508" y="1048" type="line"/>
      <point x="492" y="1010"/>
      <point x="467" y="987"/>
      <point x="431" y="987" type="curve" smooth="yes"/>
      <point x="385" y="987"/>
      <point x="338" y="1031"/>
      <point x="284" y="1031" type="curve" smooth="yes"/>
      <point x="242" y="1031"/>
      <point x="208" y="1008"/>
      <point x="186" y="965" type="curve"/>
    </contour>
  </outline>
</glyph>
<glyph name="dieresiscomb.case" format="2">
  <anchor x="360" y="900" name="_top"/>
  <anchor x="360" y="1149" name="top"/>
  <outline>
    <contour>
      <point x="240" y="1011" type="curve" smooth="yes"/>
      <point x="279" y="1011"/>
      <point x="309" y="1042"/>
      <point x="309" y="1080" type="curve" smooth="yes"/>
      <point x="309" y="1119"/>
      <point x="279" y="1149"/>
      <point x="240" y="1149" type="curve" smooth="yes"/>
      <point x="202" y="1149"/>
      <point x="171" y="1119"/>
      <point x="171" y="1080" type="curve" smooth="yes"/>
      <point x="171" y="1042"/>
      <point x="202" y="1011"/>
    </contour>
    <contour>
      <point x="480" y="1011" type="curve" smooth="yes"/>
      <point x="519" y="1011"/>
      <point x="549" y="1042"/>
      <point x="549" y="1080" type="curve" smooth="yes"/>
      <point x="549" y="1119"/>
      <point x="519" y="1149"/>
      <point x="480" y="1149" type="curve" smooth="yes"/>
      <point x="442" y="1149"/>
      <point x="411" y="1119"/>
      <point x="411" y="1080" type="curve" smooth="yes"/>
      <point x="411" y="1042"/>
      <point x="442" y="1011"/>
    </contour>
  </outline>
</glyph>
<glyph name="dieresiscomb.vertical" format="2">
  <anchor x="360" y="540" name="_top-vertical"/>
  <outline>
    <contour>
      <point x="360" y="351" type="curve" smooth="yes"/>
      <point x="399" y="351"/>
      <point x="429" y="381"/>
      <point x="429" y="420" type="curve" smooth="yes"/>
      <point x="429" y="458"/>
      <point x="399" y="489"/>
      <point x="360" y="489" type="curve" smooth="yes"/>
      <point x="322" y="489"/>
      <point x="291" y="458"/>
      <point x="291" y="420" type="curve" smooth="yes"/>
      <point x="291" y="381"/>
      <point x="322" y="351"/>
    </contour>
    <contour>
      <point x="360" y="591" type="curve" smooth="yes"/>
      <point x="399" y="591"/>
      <point x="429" y="621"/>
      <point x="429" y="660" type="curve" smooth="yes"/>
      <point x="429" y="698"/>
      <point x="399" y="729"/>
      <point x="360" y="729" type="curve" smooth="yes"/>
      <point x="322" y="729"/>
      <point x="291" y="698"/>
      <point x="291" y="660" type="curve" smooth="yes"/>
      <point x="291" y="621"/>
      <point x="322" y="591"/>
    </contour>
  </outline>
</glyph>
<glyph name="equal.titl" format="2">
  <advance width="750"/>
  <outline>
    <contour>
      <point x="90" y="311" type="line"/>
      <point x="660" y="311" type="line"/>
      <point x="660" y="361" type="line"/>
      <point x="90" y="361" type="line"/>
    </contour>
    <contour>
      <point x="90" y="539" type="line"/>
      <point x="660" y="539" type="line"/>
      <point x="660" y="589" type="line"/>
      <point x="90" y="589" type="line"/>
    </contour>
  </outline>
</glyph>
<glyph name="four.numr" format="2">
  <advance width="480"/>
  <outline>
    <contour>
      <point x="272" y="420" type="line"/>
      <point x="356" y="420" type="line"/>
      <point x="356" y="534" type="line"/>
      <point x="426" y="534" type="line"/>
      <point x="426" y="605" type="line"/>
      <point x="354" y="605" type="line"/>
      <point x="354" y="748" type="line"/>
      <point x="274" y="704" type="line"/>
      <point x="274" y="605" type="line"/>
      <point x="114" y="605" type="line"/>
      <point x="136" y="578" type="line"/>
      <point x="303" y="900" type="line"/>
      <point x="211" y="900" type="line"/>
      <point x="24" y="534" type="line"/>
      <point x="272" y="534" type="line"/>
    </contour>
  </outline>
</glyph>
<glyph name="guilsinglleft.case" format="2">
  <advance width="360"/>
  <outline>
    <contour>
      <point x="204" y="210" type="line"/>
      <point x="312" y="210" type="line"/>
      <point x="150" y="450" type="line"/>
      <point x="312" y="690" type="line"/>
      <point x="204" y="690" type="line"/>
      <point x="42" y="450" type="line"/>
    </contour>
  </outline>
</glyph>
<glyph name="parenright.titl" format="2">
  <advance width="480"/>
  <outline>
    <contour>
      <point x="114" y="-180" type="curve"/>
      <point x="182" y="-180" type="line"/>
      <point x="283" y="-13"/>
      <point x="342" y="182"/>
      <point x="342" y="390" type="curve" smooth="yes"/>
      <point x="342" y="598"/>
      <point x="283" y="793"/>
      <point x="182" y="960" type="curve"/>
      <point x="114" y="960" type="line"/>
      <point x="223" y="799"/>
      <point x="284" y="604"/>
      <point x="284" y="390" type="curve" smooth="yes"/>
      <point x="284" y="176"/>
      <point x="223" y="-19"/>
    </contour>
  </outline>
</glyph>
<glyph name="registered.lf" format="2">
  <advance width="1260"/>
  <outline>
    <contour>
      <point x="442" y="90" type="line"/>
      <point x="538" y="90" type="line"/>
      <point x="538" y="630" type="line"/>
      <point x="442" y="630" type="line"/>
    </contour>
    <contour>
      <point x="493" y="287" type="line"/>
      <point x="641" y="287" type="line" smooth="yes"/>
      <point x="758" y="287"/>
      <point x="836" y="360"/>
      <point x="836" y="457" type="curve" smooth="yes"/>
      <point x="836" y="551"/>
      <point x="762" y="630"/>
      <point x="641" y="630" type="curve" smooth="yes"/>
      <point x="493" y="630" type="line"/>
      <point x="493" y="546" type="line"/>
      <point x="636" y="546" type="line" smooth="yes"/>
      <point x="699" y="546"/>
      <point x="740" y="510"/>
      <point x="740" y="457" type="curve" smooth="yes"/>
      <point x="740" y="412"/>
      <point x="707" y="366"/>
      <point x="636" y="366" type="curve" smooth="yes"/>
      <point x="493" y="366" type="line"/>
    </contour>
    <contour>
      <point x="777" y="90" type="line"/>
      <point x="888" y="90" type="line"/>
      <point x="700" y="359" type="line"/>
      <point x="591" y="359" type="line"/>
    </contour>
    <contour>
      <point x="630" y="-192" type="curve" smooth="yes"/>
      <point x="938" y="-192"/>
      <point x="1188" y="55"/>
      <point x="1188" y="360" type="curve" smooth="yes"/>
      <point x="1188" y="665"/>
      <point x="938" y="912"/>
      <point x="630" y="912" type="curve" smooth="yes"/>
      <point x="322" y="912"/>
      <point x="72" y="665"/>
      <point x="72" y="360" type="curve" smooth="yes"/>
      <point x="72" y="55"/>
      <point x="322" y="-192"/>
    </contour>
    <contour>
      <point x="630" y="-102" type="curve" smooth="yes"/>
      <point x="375" y="-102"/>
      <point x="168" y="105"/>
      <point x="168" y="360" type="curve" smooth="yes"/>
      <point x="168" y="615"/>
      <point x="375" y="822"/>
      <point x="630" y="822" type="curve" smooth="yes"/>
      <point x="885" y="822"/>
      <point x="1092" y="615"/>
      <point x="1092" y="360" type="curve" smooth="yes"/>
      <point x="1092" y="105"/>
      <point x="885" y="-102"/>
    </contour>
  </outline>
</glyph>
<glyph name="slashshortcomb.case" format="2">
  <anchor x="213" y="300" name="_center"/>
  <outline>
    <contour>
      <point x="66" y="160" type="line"/>
      <point x="516" y="454" type="line"/>
      <point x="474" y="518" type="line"/>
      <point x="24" y="224" type="line"/>
    </contour>
  </outline>
</glyph>
<glyph name="tildecomb.case" format="2">
  <anchor x="360" y="900" name="_top"/>
  <outline>
    <contour>
      <point x="163" y="993" type="line"/>
      <point x="186" y="1041"/>
      <point x="218" y="1069"/>
      <point x="261" y="1069" type="curve" smooth="yes"/>
      <point x="326" y="1069"/>
      <point x="381" y="995"/>
      <point x="459" y="995" type="curve" smooth="yes"/>
      <point x="509" y="995"/>
      <point x="550" y="1021"/>
      <point x="580" y="1071" type="curve"/>
      <point x="557" y="1167" type="line"/>
      <point x="534" y="1119"/>
      <point x="502" y="1091"/>
      <point x="459" y="1091" type="curve" smooth="yes"/>
      <point x="394" y="1091"/>
      <point x="339" y="1165"/>
      <point x="261" y="1165" type="curve" smooth="yes"/>
      <point x="211" y="1165"/>
      <point x="170" y="1139"/>
      <point x="140" y="1089" type="curve"/>
    </contour>
  </outline>
</glyph>
<glyph name="underscore.titl" format="2">
  <advance width="720"/>
  <outline>
    <contour>
      <point x="-6" y="-180" type="line"/>
      <point x="726" y="-180" type="line"/>
      <point x="726" y="-126" type="line"/>
      <point x="-6" y="-126" type="line"/>
    </contour>
  </outline>
</glyph>
<glyph name="zero.numr" format="2">
  <advance width="480"/>
  <outline>
    <contour>
      <point x="240" y="408" type="curve" smooth="yes"/>
      <point x="369" y="408"/>
      <point x="432" y="536"/>
      <point x="432" y="660" type="curve" smooth="yes"/>
      <point x="432" y="784"/>
      <point x="369" y="912"/>
      <point x="240" y="912" type="curve" smooth="yes"/>
      <point x="111" y="912"/>
      <point x="48" y="784"/>
      <point x="48" y="660" type="curve" smooth="yes"/>
      <point x="48" y="536"/>
      <point x="111" y="408"/>
    </contour>
    <contour>
      <point x="240" y="488" type="curve" smooth="yes"/>
      <point x="167" y="488"/>
      <point x="138" y="579"/>
      <point x="138" y="660" type="curve" smooth="yes"/>
      <point x="138" y="741"/>
      <point x="167" y="832"/>
      <point x="240" y="832" type="curve" smooth="yes"/>
      <point x="313" y="832"/>
      <point x="342" y="741"/>
      <point x="342" y="660" type="curve" smooth="yes"/>
      <point x="342" y="579"/>
      <point x="313" y="488"/>
    </contour>
  </outline>
</glyph>
